{
    "asset" : {
        "generator" : "Khronos glTF Blender I/O v1.3.48",
        "version" : "2.0"
    },
    "scene" : 0,
    "scenes" : [
        {
            "name" : "Scene",
            "nodes" : [
                0
            ]
        }
    ],
    "nodes" : [
        {
            "mesh" : 0,
            "name" : "1,1,1-propellane.mol",
            "rotation" : [
                0.3848353624343872,
                -0.6951990127563477,
                -0.16469310224056244,
                0.5843597650527954
            ]
        }
    ],
    "materials" : [
        {
            "doubleSided" : true,
            "emissiveFactor" : [
                0,
                0,
                0
            ],
            "name" : "k000000",
            "pbrMetallicRoughness" : {
                "baseColorFactor" : [
                    0,
                    0,
                    0,
                    1
                ],
                "metallicFactor" : 0,
                "roughnessFactor" : 0.5744284987449646
            }
        },
        {
            "doubleSided" : true,
            "emissiveFactor" : [
                0,
                0,
                0
            ],
            "name" : "kffffff",
            "pbrMetallicRoughness" : {
                "baseColorFactor" : [
                    1,
                    1,
                    1,
                    1
                ],
                "metallicFactor" : 0,
                "roughnessFactor" : 0.5744284987449646
            }
        },
        {
            "doubleSided" : true,
            "emissiveFactor" : [
                0,
                0,
                0
            ],
            "name" : "k808080",
            "pbrMetallicRoughness" : {
                "baseColorFactor" : [
                    0.5040000081062317,
                    0.5040000081062317,
                    0.5040000081062317,
                    1
                ],
                "metallicFactor" : 0,
                "roughnessFactor" : 0.5744284987449646
            }
        }
    ],
    "meshes" : [
        {
            "name" : "1,1,1-propellane.mol",
            "primitives" : [
                {
                    "attributes" : {
                        "POSITION" : 0,
                        "NORMAL" : 1
                    },
                    "indices" : 2,
                    "material" : 0
                },
                {
                    "attributes" : {
                        "POSITION" : 3,
                        "NORMAL" : 4
                    },
                    "indices" : 5,
                    "material" : 1
                },
                {
                    "attributes" : {
                        "POSITION" : 6,
                        "NORMAL" : 7
                    },
                    "indices" : 8,
                    "material" : 2
                }
            ]
        }
    ],
    "accessors" : [
        {
            "bufferView" : 0,
            "componentType" : 5126,
            "count" : 3210,
            "max" : [
                1.5408000946044922,
                1.3138999938964844,
                1.1502000093460083
            ],
            "min" : [
                -1.364799976348877,
                -1.6178998947143555,
                -1.1502000093460083
            ],
            "type" : "VEC3"
        },
        {
            "bufferView" : 1,
            "componentType" : 5126,
            "count" : 3210,
            "type" : "VEC3"
        },
        {
            "bufferView" : 2,
            "componentType" : 5123,
            "count" : 19200,
            "type" : "SCALAR"
        },
        {
            "bufferView" : 3,
            "componentType" : 5126,
            "count" : 3852,
            "max" : [
                2.236299991607666,
                2.2441999912261963,
                0.9645999670028687
            ],
            "min" : [
                -2.236299991607666,
                -2.2441999912261963,
                -0.9214999675750732
            ],
            "type" : "VEC3"
        },
        {
            "bufferView" : 4,
            "componentType" : 5126,
            "count" : 3852,
            "type" : "VEC3"
        },
        {
            "bufferView" : 5,
            "componentType" : 5123,
            "count" : 23040,
            "type" : "SCALAR"
        },
        {
            "bufferView" : 6,
            "componentType" : 5126,
            "count" : 17628,
            "max" : [
                2.112799882888794,
                2.120699882507324,
                0.8766999840736389
            ],
            "min" : [
                -2.112799882888794,
                -2.120699882507324,
                -0.8766999840736389
            ],
            "type" : "VEC3"
        },
        {
            "bufferView" : 7,
            "componentType" : 5126,
            "count" : 17628,
            "type" : "VEC3"
        },
        {
            "bufferView" : 8,
            "componentType" : 5123,
            "count" : 102648,
            "type" : "SCALAR"
        }
    ],
    "bufferViews" : [
        {
            "buffer" : 0,
            "byteLength" : 38520,
            "byteOffset" : 0
        },
        {
            "buffer" : 0,
            "byteLength" : 38520,
            "byteOffset" : 38520
        },
        {
            "buffer" : 0,
            "byteLength" : 38400,
            "byteOffset" : 77040
        },
        {
            "buffer" : 0,
            "byteLength" : 46224,
            "byteOffset" : 115440
        },
        {
            "buffer" : 0,
            "byteLength" : 46224,
            "byteOffset" : 161664
        },
        {
            "buffer" : 0,
            "byteLength" : 46080,
            "byteOffset" : 207888
        },
        {
            "buffer" : 0,
            "byteLength" : 211536,
            "byteOffset" : 253968
        },
        {
            "buffer" : 0,
            "byteLength" : 211536,
            "byteOffset" : 465504
        },
        {
            "buffer" : 0,
            "byteLength" : 205296,
            "byteOffset" : 677040
        }
    ],
    "buffers" : [
        {
            "byteLength" : 882336,
            "uri" : "data:application/octet-stream;base64,"
        }
    ]
}
